<svg width="248" height="24" viewBox="0 0 248 24" fill="none" xmlns="http://www.w3.org/2000/svg">
<path d="M15.12 5.32003H17V2.14003C16.0897 2.04538 15.1751 1.99865 14.26 2.00003C11.54 2.00003 9.67999 3.66003 9.67999 6.70003V9.32003H6.60999V12.88H9.67999V22H13.36V12.88H16.42L16.88 9.32003H13.36V7.05003C13.36 6.00003 13.64 5.32003 15.12 5.32003Z" fill="white"/>
<path d="M73.34 5.46C73.1027 5.46 72.8707 5.53038 72.6733 5.66224C72.476 5.79409 72.3222 5.98151 72.2313 6.20078C72.1405 6.42005 72.1168 6.66133 72.1631 6.89411C72.2094 7.12689 72.3236 7.34071 72.4915 7.50853C72.6593 7.67635 72.8731 7.79064 73.1059 7.83694C73.3387 7.88324 73.5799 7.85948 73.7992 7.76866C74.0185 7.67783 74.2059 7.52402 74.3378 7.32668C74.4696 7.12935 74.54 6.89734 74.54 6.66C74.54 6.34174 74.4136 6.03652 74.1885 5.81147C73.9635 5.58643 73.6583 5.46 73.34 5.46ZM77.94 7.88C77.9206 7.0503 77.7652 6.2294 77.48 5.45C77.2257 4.78313 76.83 4.17928 76.32 3.68C75.8248 3.16743 75.2196 2.77418 74.55 2.53C73.7727 2.23616 72.9508 2.07721 72.12 2.06C71.06 2 70.72 2 68 2C65.28 2 64.94 2 63.88 2.06C63.0492 2.07721 62.2273 2.23616 61.45 2.53C60.7817 2.77665 60.1769 3.16956 59.68 3.68C59.1674 4.17518 58.7742 4.78044 58.53 5.45C58.2362 6.22734 58.0772 7.04915 58.06 7.88C58 8.94 58 9.28 58 12C58 14.72 58 15.06 58.06 16.12C58.0772 16.9508 58.2362 17.7727 58.53 18.55C58.7742 19.2196 59.1674 19.8248 59.68 20.32C60.1769 20.8304 60.7817 21.2234 61.45 21.47C62.2273 21.7638 63.0492 21.9228 63.88 21.94C64.94 22 65.28 22 68 22C70.72 22 71.06 22 72.12 21.94C72.9508 21.9228 73.7727 21.7638 74.55 21.47C75.2196 21.2258 75.8248 20.8326 76.32 20.32C76.8322 19.8226 77.2283 19.2182 77.48 18.55C77.7652 17.7706 77.9206 16.9497 77.94 16.12C77.94 15.06 78 14.72 78 12C78 9.28 78 8.94 77.94 7.88ZM76.14 16C76.1327 16.6348 76.0178 17.2637 75.8 17.86C75.6403 18.2952 75.3839 18.6884 75.05 19.01C74.7256 19.3405 74.3332 19.5964 73.9 19.76C73.3037 19.9778 72.6748 20.0927 72.04 20.1C71.04 20.15 70.67 20.16 68.04 20.16C65.41 20.16 65.04 20.16 64.04 20.1C63.3809 20.1123 62.7246 20.0109 62.1 19.8C61.6858 19.6281 61.3114 19.3728 61 19.05C60.6681 18.7287 60.4148 18.3352 60.26 17.9C60.0159 17.2952 59.8804 16.6519 59.86 16C59.86 15 59.8 14.63 59.8 12C59.8 9.37 59.8 9 59.86 8C59.8645 7.35106 59.983 6.70795 60.21 6.1C60.386 5.67791 60.6563 5.30166 61 5C61.3038 4.65617 61.6793 4.3831 62.1 4.2C62.7096 3.98004 63.352 3.86508 64 3.86C65 3.86 65.37 3.8 68 3.8C70.63 3.8 71 3.8 72 3.86C72.6348 3.86728 73.2637 3.98225 73.86 4.2C74.3144 4.36865 74.7223 4.64285 75.05 5C75.3777 5.30718 75.6338 5.68273 75.8 6.1C76.0223 6.70893 76.1373 7.35178 76.14 8C76.19 9 76.2 9.37 76.2 12C76.2 14.63 76.19 15 76.14 16ZM68 6.87C66.9858 6.87198 65.995 7.17453 65.1527 7.73942C64.3103 8.30431 63.6544 9.1062 63.2676 10.0438C62.8809 10.9813 62.7807 12.0125 62.9798 13.0069C63.1789 14.0014 63.6682 14.9145 64.3861 15.631C65.1039 16.3474 66.018 16.835 67.0129 17.0321C68.0077 17.2293 69.0387 17.1271 69.9755 16.7385C70.9123 16.35 71.7129 15.6924 72.2761 14.849C72.8394 14.0056 73.14 13.0142 73.14 12C73.1413 11.3251 73.0092 10.6566 72.7512 10.033C72.4933 9.40931 72.1146 8.84281 71.6369 8.36605C71.1592 7.88929 70.5919 7.51168 69.9678 7.25493C69.3436 6.99818 68.6749 6.86736 68 6.87ZM68 15.33C67.3414 15.33 66.6976 15.1347 66.15 14.7688C65.6023 14.4029 65.1755 13.8828 64.9235 13.2743C64.6714 12.6659 64.6055 11.9963 64.734 11.3503C64.8625 10.7044 65.1796 10.111 65.6453 9.64533C66.111 9.17963 66.7044 8.86247 67.3503 8.73398C67.9963 8.6055 68.6659 8.67144 69.2743 8.92348C69.8828 9.17552 70.4029 9.60234 70.7688 10.15C71.1347 10.6976 71.33 11.3414 71.33 12C71.33 12.4373 71.2439 12.8703 71.0765 13.2743C70.9092 13.6784 70.6639 14.0454 70.3547 14.3547C70.0454 14.6639 69.6784 14.9092 69.2743 15.0765C68.8703 15.2439 68.4373 15.33 68 15.33Z" fill="white"/>
<path d="M135 9.70998C135.049 8.27864 134.736 6.858 134.09 5.57998C133.651 5.05558 133.043 4.70169 132.37 4.57998C129.588 4.32751 126.794 4.22403 124 4.26998C121.217 4.22194 118.433 4.32208 115.66 4.56998C115.112 4.6697 114.605 4.92683 114.2 5.30998C113.3 6.13998 113.2 7.55998 113.1 8.75998C112.955 10.9175 112.955 13.0824 113.1 15.24C113.129 15.9154 113.229 16.5858 113.4 17.24C113.521 17.745 113.765 18.2123 114.11 18.6C114.517 19.0034 115.036 19.2752 115.6 19.38C117.756 19.6461 119.928 19.7564 122.1 19.71C125.6 19.76 128.67 19.71 132.3 19.43C132.877 19.3316 133.411 19.0595 133.83 18.65C134.11 18.3699 134.319 18.0271 134.44 17.65C134.798 16.5526 134.973 15.4041 134.96 14.25C135 13.69 135 10.31 135 9.70998ZM121.74 14.85V8.65998L127.66 11.77C126 12.69 123.81 13.73 121.74 14.85Z" fill="white"/>
<path d="M190 5.79997C189.248 6.12606 188.453 6.34163 187.64 6.43997C188.498 5.92729 189.141 5.12075 189.45 4.16997C188.644 4.65003 187.761 4.98826 186.84 5.16997C186.225 4.50254 185.405 4.05826 184.51 3.90682C183.615 3.75537 182.695 3.90532 181.894 4.33315C181.093 4.76099 180.457 5.4425 180.085 6.2708C179.714 7.09911 179.627 8.02736 179.84 8.90997C178.209 8.82749 176.614 8.40292 175.159 7.66383C173.703 6.92474 172.419 5.88766 171.39 4.61997C171.029 5.25013 170.84 5.96379 170.84 6.68997C170.839 7.36435 171.004 8.02858 171.322 8.62353C171.639 9.21848 172.099 9.72568 172.66 10.1C172.008 10.0822 171.37 9.90726 170.8 9.58997V9.63997C170.805 10.5849 171.136 11.4991 171.737 12.2279C172.339 12.9568 173.173 13.4556 174.1 13.64C173.743 13.7485 173.373 13.8058 173 13.81C172.742 13.807 172.484 13.7835 172.23 13.74C172.494 14.5528 173.005 15.2631 173.691 15.7721C174.378 16.2811 175.206 16.5635 176.06 16.58C174.617 17.7152 172.836 18.3348 171 18.34C170.666 18.3411 170.332 18.321 170 18.28C171.874 19.4902 174.059 20.1327 176.29 20.13C177.83 20.146 179.357 19.855 180.783 19.274C182.209 18.6931 183.505 17.8338 184.595 16.7465C185.685 15.6591 186.548 14.3654 187.133 12.9409C187.717 11.5164 188.012 9.98969 188 8.44997C188 8.27996 188 8.09997 188 7.91997C188.785 7.33478 189.461 6.61739 190 5.79997Z" fill="white"/>
<path d="M244.47 1.9999H227.53C227.34 1.99725 227.15 2.03214 226.974 2.10258C226.797 2.17302 226.635 2.27762 226.499 2.41041C226.362 2.5432 226.253 2.70158 226.178 2.87651C226.103 3.05143 226.063 3.23947 226.06 3.4299V20.5699C226.063 20.7603 226.103 20.9484 226.178 21.1233C226.253 21.2982 226.362 21.4566 226.499 21.5894C226.635 21.7222 226.797 21.8268 226.974 21.8972C227.15 21.9676 227.34 22.0025 227.53 21.9999H244.47C244.66 22.0025 244.849 21.9676 245.026 21.8972C245.203 21.8268 245.365 21.7222 245.501 21.5894C245.638 21.4566 245.747 21.2982 245.822 21.1233C245.897 20.9484 245.937 20.7603 245.94 20.5699V3.4299C245.937 3.23947 245.897 3.05143 245.822 2.87651C245.747 2.70158 245.638 2.5432 245.501 2.41041C245.365 2.27762 245.203 2.17302 245.026 2.10258C244.849 2.03214 244.66 1.99725 244.47 1.9999ZM232.09 18.7399H229.09V9.7399H232.09V18.7399ZM230.59 8.4799C230.176 8.4799 229.779 8.31554 229.487 8.02298C229.194 7.73043 229.03 7.33363 229.03 6.9199C229.03 6.50616 229.194 6.10937 229.487 5.81681C229.779 5.52425 230.176 5.3599 230.59 5.3599C230.81 5.33498 231.032 5.35675 231.243 5.42378C231.454 5.49081 231.648 5.60159 231.813 5.74886C231.978 5.89613 232.11 6.07657 232.2 6.27838C232.29 6.48018 232.337 6.69879 232.337 6.9199C232.337 7.141 232.29 7.35961 232.2 7.56141C232.11 7.76322 231.978 7.94366 231.813 8.09093C231.648 8.23821 231.454 8.34898 231.243 8.41601C231.032 8.48304 230.81 8.50481 230.59 8.4799ZM242.91 18.7399H239.91V13.9099C239.91 12.6999 239.48 11.9099 238.39 11.9099C238.053 11.9124 237.724 12.0182 237.449 12.2131C237.173 12.408 236.964 12.6826 236.85 12.9999C236.772 13.2349 236.738 13.4825 236.75 13.7299V18.7299H233.75C233.75 18.7299 233.75 10.5499 233.75 9.7299H236.75V10.9999C237.023 10.527 237.419 10.1374 237.896 9.8731C238.374 9.60878 238.915 9.47975 239.46 9.4999C241.46 9.4999 242.91 10.7899 242.91 13.5599V18.7399Z" fill="white"/>
</svg>
